<svg viewBox="0 0 200 120" xmlns="http://www.w3.org/2000/svg">
  <!-- Un grand rectangle de fond avec un "trou" au milieu de la forme du soleil -->
  <!-- Pour créer un trou parfait, on utilise les règles de remplissage (fill-rule="evenodd") -->
  <path d="
    M -100 -100 L 300 -100 L 300 300 L -100 300 Z
    M 35 77 A 63 63 0 0 1 155 70 Q 110 50 35 77 Z" 
    fill="#f3f4f6" fill-rule="evenodd" />
    
  <!-- On ajoute le cadre par dessus pour faire propre -->
  <path d="M 12 90 A 90 90 0 0 1 185 80 Q 175 75 165 72 A 75 75 0 0 0 25 80 Q 18 85 12 90 Z" fill="#297b41" />
  <path d="M 5 95 Q 80 60 195 85 Q 185 92 175 92 Q 80 72 15 105 Z" fill="#297b41" />
  <path d="M 40 115 Q 90 90 190 98 Q 185 103 175 104 Q 90 98 45 120 Z" fill="#297b41" />
</svg>
